<svg width="1920" height="1024" viewBox="0 0 1920 1024" fill="none" xmlns="http://www.w3.org/2000/svg">
<g clip-path="url(#clip0_1_2)">
<rect width="1920" height="1024" fill="white"/>
<path d="M1.04077 505.402C1.04077 505.402 64.2986 513.306 240.032 450.197C423.293 384.385 622.574 262 974.397 262C1302.45 262 1471.32 388.947 1653.49 450.197C1854.05 517.627 1939 512.93 1939 512.93" stroke="black" stroke-opacity="0.4"/>
<path d="M1.04077 505.339C1.04077 505.339 64.2584 515.72 239.97 471.592C423.208 425.575 622.465 340 974.245 340C1302.25 340 1471.1 428.765 1653.25 471.592C1853.78 518.741 1919.22 512.5 1919.22 512.5" stroke="black" stroke-opacity="0.4"/>
<path d="M1919.22 512.5C1919.22 512.5 1880.15 510.625 1704.41 573.5C1521.14 639.068 1321.85 761 970.02 761C641.962 761 473.085 634.523 290.905 573.5C90.3444 506.32 6.06681e-05 505 6.06681e-05 505" stroke="black" stroke-opacity="0.4"/>
<path d="M1919.22 512.5C1919.22 512.5 1880.18 507.988 1704.54 541.391C1521.37 576.224 1322.19 641 970.541 641C642.658 641 473.872 573.809 291.79 541.391C91.3368 505.701 1.04084 505 1.04084 505" stroke="black" stroke-opacity="0.4"/>
</g>
<defs>
<clipPath id="clip0_1_2">
<rect width="1920" height="1024" fill="white"/>
</clipPath>
</defs>
</svg>
